<svg xmlns="http://www.w3.org/2000/svg" width="400" height="400" viewBox="0 0 256 256"><path fill="#fff" stroke-miterlimit="10" d="M70.5 11c-5.387 0-10.225 2.32-13.607 6H22.332A6.339 6.339 0 0 0 16 23.332v53.336A6.339 6.339 0 0 0 22.332 83h53.334A6.34 6.34 0 0 0 82 76.668V45.025c3.421-4.452 7-9.472 7-15.525C89 19.289 80.711 11 70.5 11zm0 1C80.17 12 88 19.83 88 29.5c0 8.21-7.263 14.677-11.049 20.734C72.53 57.31 71 63.8 71 66.5c0 .281-.219.5-.5.5a.493.493 0 0 1-.5-.5c0-2.7-1.53-9.191-5.951-16.266C60.263 44.177 53 37.71 53 29.5 53 19.83 60.83 12 70.5 12zm0 3a.5.5 0 1 0 0 1c.649 0 1.29.062 1.93.154a.5.5 0 1 0 .14-.988A14.5 14.5 0 0 0 70.5 15zm3.996.588a.5.5 0 0 0-.139.98 13.45 13.45 0 0 1 3.856 1.866.5.5 0 1 0 .574-.82 14.458 14.458 0 0 0-4.144-2.003.5.5 0 0 0-.147-.023zM22.332 19h32.947A18.398 18.398 0 0 0 52 29.5c0 3.137.972 5.996 2.375 8.646L18 74.523V23.332A4.336 4.336 0 0 1 22.332 19zm58.855.994a.5.5 0 0 0-.37.828A13.407 13.407 0 0 1 84 29.5c0 4.645-3.332 9.042-6.654 13.361-1.372 1.784-2.679 3.481-3.787 5.254-.175.28-.331.551-.489.815a.5.5 0 1 0 .86.513c.164-.274.315-.54.476-.798 1.074-1.717 2.36-3.39 3.733-5.174C81.46 39.15 85 34.615 85 29.5c0-3.55-1.292-6.802-3.418-9.322a.5.5 0 0 0-.394-.184zM70.5 22c-4.136 0-7.5 3.364-7.5 7.5s3.364 7.5 7.5 7.5 7.5-3.364 7.5-7.5-3.364-7.5-7.5-7.5zM32 23c-5.517 0-10 4.483-10 10s4.483 10 10 10c4.606 0 8.483-3.124 9.639-7.37.227-.835.361-1.714.361-2.63 0-.547-.057-1.072-.139-1.58a.5.5 0 0 0-.494-.42H32.5a.5.5 0 0 0-.5.5v4a.5.5 0 0 0 .5.5h3.281c-.914 1.149-2.194 2-3.781 2-2.768 0-5-2.232-5-5a4.992 4.992 0 0 1 8.338-3.715.5.5 0 0 0 .687-.02l2.829-2.826a.5.5 0 0 0-.012-.718A9.958 9.958 0 0 0 32 23zm38.5 0c3.596 0 6.5 2.904 6.5 6.5S74.096 36 70.5 36a6.492 6.492 0 0 1-6.5-6.5c0-3.596 2.904-6.5 6.5-6.5zM32 24c2.198 0 4.153.856 5.715 2.164l-2.123 2.121C34.584 27.516 33.365 27 32 27c-3.308 0-6 2.692-6 6s2.692 6 6 6a5.997 5.997 0 0 0 5.34-3.271.5.5 0 0 0-.445-.729H33v-3h7.912c.041.332.088.664.088 1a9 9 0 0 1-.326 2.37C39.634 39.187 36.154 42 32 42c-4.977 0-9-4.023-9-9s4.023-9 9-9zm22.877 15.059c1.224 2.125 2.69 4.102 4.139 5.986l-4.248 4.246-6.475 6.477h-.002L23.061 81h-.729A4.336 4.336 0 0 1 18 76.668v-.73zm4.752 6.787c1.324 1.713 2.591 3.35 3.572 4.92C67.53 57.69 69 64.2 69 66.5c0 .823.677 1.5 1.5 1.5s1.5-.677 1.5-1.5c0-2.3 1.47-8.809 5.799-15.734.63-1.008 1.396-2.052 2.201-3.116v26.875l-6.146-6.148a.5.5 0 1 0-.707.707L80 75.939v.729A4.336 4.336 0 0 1 75.668 81h-.729L49.707 55.768l5.06-5.061 11.38 11.377a.5.5 0 1 0 .707-.707L55.477 50zM49 56.475 73.525 81h-49.05z" font-family="none" font-size="none" font-weight="none" style="mix-blend-mode:normal" text-anchor="none" transform="scale(2.56)"/></svg>